<?xml version="1.0" encoding="utf-8" ?>
<svg baseProfile="full" height="2500" version="1.1" width="5397" xmlns="http://www.w3.org/2000/svg" xmlns:ev="http://www.w3.org/2001/xml-events" xmlns:xlink="http://www.w3.org/1999/xlink"><defs><marker id="arrow" markerHeight="3.5" markerWidth="5" orient="auto" refX="5.0" refY="1.7"><polygon points="0,0 5,1.75 0,3.5" /></marker></defs><g style="fill:white;"><g transform="matrix(1.0, 0.0, 0.0, 1.0, 2698.688298714403, 1249.9999999999998)"><g transform="matrix(609.0670911374211, 0.0, 0.0, 609.0670911374211, 0.0, 0.0)"><g><g transform="matrix(1.0, 0.0, 0.0, 1.0, -0.0, -0.0)"><g><g style="fill: #ffffff;stroke: black;stroke-width: 16.191;" transform="matrix(1.0, 0.0, 0.0, 1.0, -4.219862424858968, -1.9545895810147924)"><path d="M 0.0 0.0 L 8.439724849717935 0.0 L 8.439724849717935 3.909179162029585 L 0.0 3.909179162029585 L 0.0 0.0 Z" style="vector-effect: non-scaling-stroke;" /></g><g transform="matrix(1.0, 0.0, 0.0, 1.0, -0.0, -1.4545895810147924)"><g><g /><g transform="matrix(1.0, 0.0, 0.0, 1.0, 0.0, 0.0)"><g transform="matrix(0.0, -1.0, 1.0, 0.0, 0.0, 0.0)"><g /></g></g><g transform="matrix(1.0, 0.0, 0.0, 1.0, 0.0, -8.326672684688674e-17)"><g><g /><g transform="matrix(1.0, 0.0, 0.0, 1.0, 0.0, 0.0)"><g transform="matrix(0.0, -1.0, 1.0, 0.0, 0.0, 0.0)"><g /></g></g><g transform="matrix(1.0, 0.0, 0.0, 1.0, 0.0, 0.0)"><g /></g><g transform="matrix(1.0, 0.0, 0.0, 1.0, 0.0, 0.0)"><g transform="matrix(0.0, -1.0, 1.0, 0.0, 0.0, 0.0)"><g /></g></g><g transform="matrix(1.0, 0.0, 0.0, 1.0, 0.0, 1.4545895810147924)"><g transform="matrix(1.0, 0.0, 0.0, 1.0, -0.0, -1.3545895810147923)"><g><g style="stroke: black;stroke-width: 16.191;" transform="matrix(1.0, 0.0, 0.0, 1.0, 0.0, 0.0)"><g /></g><g transform="matrix(1.0, 0.0, 0.0, 1.0, 0.0, 1.4545895810147924)"><g><g transform="matrix(1.0, 0.0, 0.0, 1.0, -2.0943549276412163, -0.0)"><g><g transform="matrix(1.0, 0.0, 0.0, 1.0458958101479245, 0.0, 0.0)"><g transform="matrix(1.2550749721775096, 0.0, 0.0, 1.0, 0.0, 0.0)"><g><g style="fill: #ffffff;stroke: black;stroke-width: 0.0;" transform="matrix(1.0, 0.0, 0.0, 1.0, -1.2951477268306566, -1.2951477268306566)"><path d="M 0.0 0.0 L 2.590295453661313 0.0 L 2.590295453661313 2.590295453661313 L 0.0 2.590295453661313 L 0.0 0.0 Z" style="vector-effect: non-scaling-stroke;" /></g><g transform="matrix(1.0, 0.0, 0.0, 1.0, -0.9232845738999779, -0.9653624180256464)"><g transform="matrix(0.6551675417218098, 0.0, 0.0, 1.0, 0.0, 0.0)"><g transform="matrix(1.0, 0.0, 0.0, 0.5633971815795669, 0.0, 0.0)"><g><g style="fill: #f29f05;stroke: black;stroke-width: 0.0;fill-opacity: 0.4;" transform="matrix(1.0, 0.0, 0.0, 1.0, 0.0, 0.0)"><path d="M 0.0 0.0 L -0.14834045293024464 -0.28128047484684726 L -0.14834045293024464 0.6774171435894905 L 0.0 0.9586976184363377 L 0.0 0.0 Z" style="vector-effect: non-scaling-stroke;" /></g><g /><g style="fill: #f29f05;stroke: black;stroke-width: 0.0;fill-opacity: 0.4;" transform="matrix(1.0, 0.0, 0.0, 1.0, 0.0, 0.0)"><path d="M 0.0 0.0 L -0.14834045293024464 -0.28128047484684726 L 2.818468605674648 -0.40785668852792856 L 2.9668090586048925 -0.1265762136810813 L 0.0 -2.7755575615628914e-17 Z" style="vector-effect: non-scaling-stroke;" /></g><g /><g style="fill: #f29f05;stroke: black;stroke-width: 0.0;fill-opacity: 0.4;" transform="matrix(1.0, 0.0, 0.0, 1.0, 0.0, 0.0)"><path d="M 0.0 0.0 L 2.9668090586048925 -0.12657621368108127 L 2.9668090586048925 0.8321214047552564 L 0.0 0.9586976184363377 L 0.0 0.0 Z" style="vector-effect: non-scaling-stroke;" /></g><g /><g style="stroke: #000000;stroke-width: 0.16191;" transform="matrix(1.0, 0.0, 0.0, 1.0, 0.0, 0.0)"><path d="M 0.0 0.0 L -0.14834045293024464 -0.28128047484684726 L -0.14834045293024464 0.6774171435894905 L -0.14834045293024464 -0.28128047484684726 Z" style="vector-effect: non-scaling-stroke;" /></g><g /><g style="stroke: #000000;stroke-width: 0.16191;" transform="matrix(1.0, 0.0, 0.0, 1.0, 0.0, 0.0)"><path d="M 0.0 0.0 L -0.14834045293024464 -0.28128047484684726 L 2.818468605674648 -0.40785668852792856 L -0.14834045293024456 -0.28128047484684726 Z" style="vector-effect: non-scaling-stroke;" /></g><g /><g style="stroke: #000000;stroke-width: 0.16191;" transform="matrix(1.0, 0.0, 0.0, 1.0, 0.0, 0.0)"><path d="M 0.0 0.0 L 0.0 0.9586976184363377 L -0.14834045293024464 0.6774171435894905 L 0.0 0.9586976184363377 Z" style="vector-effect: non-scaling-stroke;" /></g><g /><g style="stroke: #000000;stroke-width: 0.16191;" transform="matrix(1.0, 0.0, 0.0, 1.0, 0.0, 0.0)"><path d="M 0.0 0.0 L 0.0 0.9586976184363377 L 2.9668090586048925 0.8321214047552564 L 0.0 0.9586976184363377 Z" style="vector-effect: non-scaling-stroke;" /></g><g /><g style="stroke: #000000;stroke-width: 0.16191;" transform="matrix(1.0, 0.0, 0.0, 1.0, 0.0, 0.0)"><path d="M 0.0 0.0 L 0.9889363528682975 -0.04219207122702709 L 0.8405958999380528 -0.3234725460738743 L 0.9889363528682975 -0.04219207122702706 L 1.977872705736595 -0.08438414245405415 L 1.8295322528063505 -0.3656646173009014 L 1.977872705736595 -0.08438414245405412 L 2.9668090586048925 -0.1265762136810812 L 2.818468605674648 -0.40785668852792845 L 2.9668090586048925 -0.12657621368108118 Z" style="vector-effect: non-scaling-stroke;" /></g><g /><g style="stroke: #000000;stroke-width: 0.16191;" transform="matrix(1.0, 0.0, 0.0, 1.0, 0.0, 0.0)"><path d="M 0.0 0.0 L 0.9889363528682975 -0.04219207122702709 L 0.9889363528682975 0.9165055472093107 L 0.9889363528682975 -0.04219207122702706 L 1.977872705736595 -0.08438414245405415 L 1.977872705736595 0.8743134759822836 L 1.977872705736595 -0.08438414245405412 L 2.9668090586048925 -0.1265762136810812 L 2.9668090586048925 0.8321214047552565 L 2.9668090586048925 -0.12657621368108118 Z" style="vector-effect: non-scaling-stroke;" /></g><g /><g style="fill: #f29f05;stroke: black;stroke-width: 0.0;fill-opacity: 0.4;" transform="matrix(1.0, 0.0, 0.0, 1.0, 0.0, 0.0)"><path d="M 0.0 0.9586976184363377 L -0.14834045293024464 0.6774171435894905 L -0.14834045293024464 1.6361147620258283 L 0.0 1.9173952368726757 L 0.0 0.9586976184363377 Z" style="vector-effect: non-scaling-stroke;" /></g><g /><g style="fill: #f29f05;stroke: black;stroke-width: 0.0;fill-opacity: 0.4;" transform="matrix(1.0, 0.0, 0.0, 1.0, 0.0, 0.0)"><path d="M 0.0 0.9586976184363377 L -0.14834045293024464 0.6774171435894905 L 1.8295322528063505 0.5930330011354363 L 1.977872705736595 0.8743134759822836 L 0.0 0.9586976184363376 Z" style="vector-effect: non-scaling-stroke;" /></g><g /><g style="fill: #f29f05;stroke: black;stroke-width: 0.0;fill-opacity: 0.4;" transform="matrix(1.0, 0.0, 0.0, 1.0, 0.0, 0.0)"><path d="M 0.0 0.9586976184363377 L 1.977872705736595 0.8743134759822835 L 1.977872705736595 1.8330110944186213 L 0.0 1.9173952368726754 L 0.0 0.9586976184363375 Z" style="vector-effect: non-scaling-stroke;" /></g><g /><g style="stroke: #000000;stroke-width: 0.16191;" transform="matrix(1.0, 0.0, 0.0, 1.0, 0.0, 0.0)"><path d="M 0.0 0.9586976184363377 L -0.14834045293024464 0.6774171435894905 L -0.14834045293024464 1.6361147620258283 L -0.14834045293024464 0.6774171435894906 Z" style="vector-effect: non-scaling-stroke;" /></g><g /><g style="stroke: #000000;stroke-width: 0.16191;" transform="matrix(1.0, 0.0, 0.0, 1.0, 0.0, 0.0)"><path d="M 0.0 0.9586976184363377 L -0.14834045293024464 0.6774171435894905 L 1.8295322528063505 0.5930330011354363 L -0.14834045293024456 0.6774171435894905 Z" style="vector-effect: non-scaling-stroke;" /></g><g /><g style="stroke: #000000;stroke-width: 0.16191;" transform="matrix(1.0, 0.0, 0.0, 1.0, 0.0, 0.0)"><path d="M 0.0 0.9586976184363377 L 0.0 1.9173952368726754 L -0.14834045293024464 1.6361147620258283 L 0.0 1.9173952368726757 Z" style="vector-effect: non-scaling-stroke;" /></g><g /><g style="stroke: #000000;stroke-width: 0.16191;" transform="matrix(1.0, 0.0, 0.0, 1.0, 0.0, 0.0)"><path d="M 0.0 0.9586976184363377 L 0.0 1.9173952368726754 L 1.977872705736595 1.8330110944186213 L 0.0 1.9173952368726754 Z" style="vector-effect: non-scaling-stroke;" /></g><g /><g style="stroke: #000000;stroke-width: 0.16191;" transform="matrix(1.0, 0.0, 0.0, 1.0, 0.0, 0.0)"><path d="M 0.0 0.9586976184363377 L 0.9889363528682975 0.9165055472093107 L 0.8405958999380528 0.6352250723624634 L 0.9889363528682975 0.9165055472093107 L 1.977872705736595 0.8743134759822836 L 1.8295322528063505 0.5930330011354363 L 1.977872705736595 0.8743134759822836 Z" style="vector-effect: non-scaling-stroke;" /></g><g /><g style="stroke: #000000;stroke-width: 0.16191;" transform="matrix(1.0, 0.0, 0.0, 1.0, 0.0, 0.0)"><path d="M 0.0 0.9586976184363377 L 0.9889363528682975 0.9165055472093107 L 0.9889363528682975 1.8752031656456483 L 0.9889363528682975 0.9165055472093105 L 1.977872705736595 0.8743134759822836 L 1.977872705736595 1.8330110944186213 L 1.977872705736595 0.8743134759822836 Z" style="vector-effect: non-scaling-stroke;" /></g><g /><g /><g><g style="fill: #808080;stroke: #808080;stroke-width: 0.80955;fill-opacity: 0.1;" transform="matrix(1.0, 0.0, 0.0, 1.0, 0.0, 0.0)"><path d="M -0.14834045293024464 -0.28128047484684726 L -0.14834045293024464 -0.28128047484684726 L -0.14834045293024464 3.5535099988985035 L -0.14834045293024464 3.5535099988985035 L -0.14834045293024464 -0.2812804748468474 Z" style="vector-effect: non-scaling-stroke;" /></g><g style="fill: #808080;stroke: #808080;stroke-width: 0.80955;fill-opacity: 0.1;" transform="matrix(1.0, 0.0, 0.0, 1.0, 0.0, 0.0)"><path d="M -0.14834045293024464 -0.28128047484684726 L -0.14834045293024464 -0.28128047484684726 L 2.818468605674648 -0.40785668852792856 L 2.818468605674648 -0.40785668852792856 L -0.14834045293024456 -0.28128047484684726 Z" style="vector-effect: non-scaling-stroke;" /></g><g style="fill: #808080;stroke: #808080;stroke-width: 0.80955;fill-opacity: 0.1;" transform="matrix(1.0, 0.0, 0.0, 1.0, 0.0, 0.0)"><path d="M -0.14834045293024464 -0.28128047484684726 L 2.818468605674648 -0.40785668852792856 L 2.818468605674648 3.426933785217422 L -0.14834045293024456 3.5535099988985035 L -0.14834045293024464 -0.2812804748468474 Z" style="vector-effect: non-scaling-stroke;" /></g></g><g><g style="fill: #808080;stroke: #000000;stroke-width: 1.6191;fill-opacity: 0.05;" transform="matrix(1.0, 0.0, 0.0, 1.0, 0.0, 0.0)"><path d="M 0.0 0.0 L -0.14834045293024464 -0.28128047484684726 L -0.14834045293024464 3.5535099988985035 L 0.0 3.834790473745351 L 0.0 0.0 Z" style="vector-effect: non-scaling-stroke;" /></g><g style="fill: #808080;stroke: #000000;stroke-width: 1.6191;fill-opacity: 0.05;" transform="matrix(1.0, 0.0, 0.0, 1.0, 0.0, 0.0)"><path d="M 0.0 0.0 L -0.14834045293024464 -0.28128047484684726 L 2.818468605674648 -0.40785668852792856 L 2.9668090586048925 -0.1265762136810813 L 0.0 -2.7755575615628914e-17 Z" style="vector-effect: non-scaling-stroke;" /></g><g style="fill: #808080;stroke: #000000;stroke-width: 1.6191;fill-opacity: 0.05;" transform="matrix(1.0, 0.0, 0.0, 1.0, 0.0, 0.0)"><path d="M 0.0 0.0 L 2.9668090586048925 -0.12657621368108127 L 2.9668090586048925 3.7082142600642696 L 0.0 3.834790473745351 L 0.0 0.0 Z" style="vector-effect: non-scaling-stroke;" /></g></g></g></g></g></g><g /></g></g></g><g style="stroke: black;stroke-width: 16.191;" transform="matrix(1.0, 0.0, 0.0, 1.0, 2.1255074972177512, 0.0)"><g /></g><g transform="matrix(1.0, 0.0, 0.0, 1.0, 4.219862424858968, 0.0)"><g transform="matrix(1.0, 0.0, 0.0, 0.7862910636768046, 0.0, 0.0)"><g transform="matrix(0.9435492764121655, 0.0, 0.0, 1.0, 0.0, 0.0)"><g><g style="fill: #ffffff;stroke: black;stroke-width: 0.0;" transform="matrix(1.0, 0.0, 0.0, 1.0, -1.6897420913762253, -1.6897420913762253)"><path d="M 0.0 0.0 L 3.3794841827524507 0.0 L 3.3794841827524507 3.3794841827524507 L 0.0 3.3794841827524507 L 0.0 0.0 Z" style="vector-effect: non-scaling-stroke;" /></g><g transform="matrix(1.0, 0.0, 0.0, 1.0, -1.5312239775832353, -0.14715244580966902)"><g transform="matrix(0.3944852037124853, 0.0, 0.0, 1.0, 0.0, 0.0)"><g transform="matrix(1.0, 0.0, 0.0, 0.8659067752888457, 0.0, 0.0)"><g><g style="fill: #f29f05;stroke: black;stroke-width: 0.0;fill-opacity: 0.4;" transform="matrix(1.0, 0.0, 0.0, 1.0, 0.0, 0.0)"><path d="M 0.0 0.0 L -0.14834045293024464 -0.28128047484684726 L -0.14834045293024464 0.6774171435894905 L 0.0 0.9586976184363377 L 0.0 0.0 Z" style="vector-effect: non-scaling-stroke;" /></g><g /><g style="fill: #f29f05;stroke: black;stroke-width: 0.0;fill-opacity: 0.4;" transform="matrix(1.0, 0.0, 0.0, 1.0, 0.0, 0.0)"><path d="M 0.0 0.0 L -0.14834045293024464 -0.28128047484684726 L 4.7963413114112425 -0.4922408309819827 L 4.944681764341487 -0.21096035613513542 L 0.0 2.7755575615628914e-17 Z" style="vector-effect: non-scaling-stroke;" /></g><g /><g style="fill: #f29f05;stroke: black;stroke-width: 0.0;fill-opacity: 0.4;" transform="matrix(1.0, 0.0, 0.0, 1.0, 0.0, 0.0)"><path d="M 0.0 0.0 L 4.944681764341487 -0.21096035613513545 L 4.944681764341487 0.7477372623012023 L 0.0 0.9586976184363377 L 0.0 0.0 Z" style="vector-effect: non-scaling-stroke;" /></g><g /><g style="stroke: #000000;stroke-width: 0.16191;" transform="matrix(1.0, 0.0, 0.0, 1.0, 0.0, 0.0)"><path d="M 0.0 0.0 L -0.14834045293024464 -0.28128047484684726 L -0.14834045293024464 0.6774171435894905 L -0.14834045293024464 -0.28128047484684726 Z" style="vector-effect: non-scaling-stroke;" /></g><g /><g style="stroke: #000000;stroke-width: 0.16191;" transform="matrix(1.0, 0.0, 0.0, 1.0, 0.0, 0.0)"><path d="M 0.0 0.0 L -0.14834045293024464 -0.28128047484684726 L 4.7963413114112425 -0.4922408309819827 L -0.14834045293024456 -0.28128047484684726 Z" style="vector-effect: non-scaling-stroke;" /></g><g /><g style="stroke: #000000;stroke-width: 0.16191;" transform="matrix(1.0, 0.0, 0.0, 1.0, 0.0, 0.0)"><path d="M 0.0 0.0 L 0.0 0.9586976184363377 L -0.14834045293024464 0.6774171435894905 L 0.0 0.9586976184363377 Z" style="vector-effect: non-scaling-stroke;" /></g><g /><g style="stroke: #000000;stroke-width: 0.16191;" transform="matrix(1.0, 0.0, 0.0, 1.0, 0.0, 0.0)"><path d="M 0.0 0.0 L 0.0 0.9586976184363377 L 4.944681764341487 0.7477372623012023 L 0.0 0.9586976184363377 Z" style="vector-effect: non-scaling-stroke;" /></g><g /><g style="stroke: #000000;stroke-width: 0.16191;" transform="matrix(1.0, 0.0, 0.0, 1.0, 0.0, 0.0)"><path d="M 0.0 0.0 L 0.9889363528682975 -0.04219207122702709 L 0.8405958999380528 -0.3234725460738743 L 0.9889363528682975 -0.04219207122702706 L 1.977872705736595 -0.08438414245405415 L 1.8295322528063505 -0.3656646173009014 L 1.977872705736595 -0.08438414245405412 L 2.9668090586048925 -0.1265762136810812 L 2.818468605674648 -0.40785668852792845 L 2.9668090586048925 -0.12657621368108118 L 3.95574541147319 -0.16876828490810827 L 3.8074049585429455 -0.4500487597549555 L 3.95574541147319 -0.16876828490810825 L 4.944681764341487 -0.21096035613513534 L 4.7963413114112425 -0.49224083098198257 L 4.944681764341487 -0.2109603561351353 Z" style="vector-effect: non-scaling-stroke;" /></g><g /><g style="stroke: #000000;stroke-width: 0.16191;" transform="matrix(1.0, 0.0, 0.0, 1.0, 0.0, 0.0)"><path d="M 0.0 0.0 L 0.9889363528682975 -0.04219207122702709 L 0.9889363528682975 0.9165055472093107 L 0.9889363528682975 -0.04219207122702706 L 1.977872705736595 -0.08438414245405415 L 1.977872705736595 0.8743134759822836 L 1.977872705736595 -0.08438414245405412 L 2.9668090586048925 -0.1265762136810812 L 2.9668090586048925 0.8321214047552565 L 2.9668090586048925 -0.12657621368108118 L 3.95574541147319 -0.16876828490810827 L 3.95574541147319 0.7899293335282295 L 3.95574541147319 -0.16876828490810825 L 4.944681764341487 -0.21096035613513534 L 4.944681764341487 0.7477372623012024 L 4.944681764341487 -0.2109603561351353 Z" style="vector-effect: non-scaling-stroke;" /></g><g /><g /><g><g style="fill: #808080;stroke: #808080;stroke-width: 0.80955;fill-opacity: 0.1;" transform="matrix(1.0, 0.0, 0.0, 1.0, 0.0, 0.0)"><path d="M -0.14834045293024464 -0.28128047484684726 L -0.14834045293024464 -0.28128047484684726 L -0.14834045293024464 0.6774171435894905 L -0.14834045293024464 0.6774171435894905 L -0.14834045293024464 -0.28128047484684726 Z" style="vector-effect: non-scaling-stroke;" /></g><g style="fill: #808080;stroke: #808080;stroke-width: 0.80955;fill-opacity: 0.1;" transform="matrix(1.0, 0.0, 0.0, 1.0, 0.0, 0.0)"><path d="M -0.14834045293024464 -0.28128047484684726 L -0.14834045293024464 -0.28128047484684726 L 7.7631503700161355 -0.618817044663064 L 7.7631503700161355 -0.618817044663064 L -0.14834045293024456 -0.28128047484684726 Z" style="vector-effect: non-scaling-stroke;" /></g><g style="fill: #808080;stroke: #808080;stroke-width: 0.80955;fill-opacity: 0.1;" transform="matrix(1.0, 0.0, 0.0, 1.0, 0.0, 0.0)"><path d="M -0.14834045293024464 -0.28128047484684726 L 7.7631503700161355 -0.618817044663064 L 7.7631503700161355 0.33988057377327374 L -0.14834045293024456 0.6774171435894905 L -0.14834045293024464 -0.28128047484684726 Z" style="vector-effect: non-scaling-stroke;" /></g></g><g><g style="fill: #808080;stroke: #000000;stroke-width: 1.6191;fill-opacity: 0.05;" transform="matrix(1.0, 0.0, 0.0, 1.0, 0.0, 0.0)"><path d="M 0.0 0.0 L -0.14834045293024464 -0.28128047484684726 L -0.14834045293024464 0.6774171435894905 L 0.0 0.9586976184363377 L 0.0 0.0 Z" style="vector-effect: non-scaling-stroke;" /></g><g style="fill: #808080;stroke: #000000;stroke-width: 1.6191;fill-opacity: 0.05;" transform="matrix(1.0, 0.0, 0.0, 1.0, 0.0, 0.0)"><path d="M 0.0 0.0 L -0.14834045293024464 -0.28128047484684726 L 7.7631503700161355 -0.618817044663064 L 7.91149082294638 -0.3375365698162167 L 0.0 0.0 Z" style="vector-effect: non-scaling-stroke;" /></g><g style="fill: #808080;stroke: #000000;stroke-width: 1.6191;fill-opacity: 0.05;" transform="matrix(1.0, 0.0, 0.0, 1.0, 0.0, 0.0)"><path d="M 0.0 0.0 L 7.91149082294638 -0.3375365698162167 L 7.91149082294638 0.621161048620121 L 0.0 0.9586976184363377 L 0.0 0.0 Z" style="vector-effect: non-scaling-stroke;" /></g></g></g></g></g></g><g /></g></g></g></g></g></g><g style="fill: #000000;stroke: black;stroke-width: 0.0;" transform="matrix(1.0, 0.0, 0.0, 1.0, 0.0, -1.0)"><text style="text-align:center; text-anchor:middle; dominant-baseline:middle;&#10;                      font-family:sans-serif; font-weight: bold;&#10;                      font-size:0.2px;&#10;                      vector-effect: non-scaling-stroke;" transform="translate(-5e-05, 0)">load</text></g></g></g></g></g></g></g></g></g></g></g></g><g /></g></g></g></g></svg>